<svg width="20" height="20" viewBox="0 0 20 20" fill="none" xmlns="http://www.w3.org/2000/svg">
<path d="M0.833032 1.66669H7.98303L9.2222 7.24169L7.6722 8.79169C8.58356 10.21 9.78946 11.4157 11.208 12.3267L12.758 10.7775L18.333 12.0167V19.1667H17.4997C14.2916 19.1722 11.1509 18.247 8.45803 16.5034C6.47239 15.2183 4.7814 13.5273 3.49637 11.5417C1.75272 8.84885 0.827562 5.70808 0.833032 2.50002V1.66669ZM2.5222 3.33335C2.66262 5.93328 3.48114 8.45117 4.89637 10.6367C6.0533 12.4242 7.57557 13.9464 9.36303 15.1034C11.5485 16.5186 14.0664 17.3371 16.6664 17.4775V13.3534L13.2889 12.6034L11.4772 14.4159L10.9247 14.1017C8.8269 12.9096 7.09015 11.1728 5.89803 9.07502L5.58387 8.52252L7.39637 6.71085L6.64637 3.33335H2.5222Z" fill="white"/>
</svg>
