<svg width="8" height="32" viewBox="0 0 8 32" fill="none" xmlns="http://www.w3.org/2000/svg">
<path d="M-8.00033 18.6668C-11.5603 18.6668 -18.667 20.4535 -18.667 24.0002V26.6668H2.66634V24.0002C2.66634 20.4535 -4.44032 18.6668 -8.00033 18.6668ZM-16.0003 24.0002C-15.707 23.0402 -11.587 21.3335 -8.00033 21.3335C-4.40032 21.3335 -0.266993 23.0535 -0.000324249 24.0002H-16.0003ZM-8.00033 16.0002C-5.05366 16.0002 -2.66699 13.6135 -2.66699 10.6668C-2.66699 7.72016 -5.05366 5.3335 -8.00033 5.3335C-10.947 5.3335 -13.3337 7.72016 -13.3337 10.6668C-13.3337 13.6135 -10.947 16.0002 -8.00033 16.0002ZM-8.00033 8.00016C-6.53366 8.00016 -5.33366 9.20016 -5.33366 10.6668C-5.33366 12.1335 -6.53366 13.3335 -8.00033 13.3335C-9.46699 13.3335 -10.667 12.1335 -10.667 10.6668C-10.667 9.20016 -9.46699 8.00016 -8.00033 8.00016Z" fill="white"/>
</svg>
