<svg width="48" height="49" viewBox="0 0 48 49" fill="none" xmlns="http://www.w3.org/2000/svg">
<rect x="0.5" y="1" width="47" height="47" rx="11.5" stroke="#CBD0C8"/>
<path d="M30 18.5H28C28 16.29 26.21 14.5 24 14.5C21.79 14.5 20 16.29 20 18.5H18C16.9 18.5 16 19.4 16 20.5V32.5C16 33.6 16.9 34.5 18 34.5H30C31.1 34.5 32 33.6 32 32.5V20.5C32 19.4 31.1 18.5 30 18.5ZM24 16.5C25.1 16.5 26 17.4 26 18.5H22C22 17.4 22.9 16.5 24 16.5ZM30 32.5H18V20.5H20V22.5C20 23.05 20.45 23.5 21 23.5C21.55 23.5 22 23.05 22 22.5V20.5H26V22.5C26 23.05 26.45 23.5 27 23.5C27.55 23.5 28 23.05 28 22.5V20.5H30V32.5Z" fill="#294F4A"/>
</svg>
